<svg width="137" height="120" viewBox="0 0 137 120" fill="none" xmlns="http://www.w3.org/2000/svg">
<path d="M57.782 67.3592C57.782 67.3592 57.4609 69.8542 56.125 69.9815C54.7891 70.1089 52.8434 70.4026 52.8434 70.4026L54.0919 68.8765C54.0919 68.8765 52.133 70.104 51.2596 70.3788C50.3862 70.6535 51.6994 68.7633 51.6994 68.7633C51.6994 68.7633 49.9166 68.4837 48.8982 69.7463C47.8798 71.009 46.3989 72.1242 46.3989 72.1242C46.3989 72.1242 47.8009 67.3283 48.7546 66.4298C49.7083 65.5313 49.6412 65.2214 49.6412 65.2214L47.892 65.0967C47.892 65.0967 49.3549 63.5669 49.9983 63.5555C50.6417 63.5441 49.4173 62.5286 49.4173 62.5286C49.4173 62.5286 51.9525 60.9798 52.3323 61.0768C52.712 61.1739 56.3446 62.0431 56.3446 62.0431L57.782 67.3592Z" fill="#008033"/>
<path d="M65.9845 77.9839C65.9845 77.9839 64.3406 79.6725 64.9887 81.0094C65.6368 82.3463 66.5018 84.3536 66.5018 84.3536L66.9236 82.3236C66.9236 82.3236 67.1139 84.8613 67.3978 85.8416C67.6817 86.8219 68.3336 84.5286 68.3336 84.5286C68.3336 84.5286 69.5268 86.0633 69.1697 87.7291C68.8126 89.395 68.8197 91.4174 68.8197 91.4174C68.8197 91.4174 71.5443 87.4278 71.6714 86.0254C71.7984 84.623 72.062 84.5145 72.062 84.5145L73.1234 86.1034C73.1234 86.1034 73.429 83.8681 73.0804 83.2519C72.7318 82.6358 74.1527 83.2329 74.1527 83.2329C74.1527 83.2329 73.8773 79.9706 73.5957 79.6644C73.3141 79.3585 70.6642 76.3973 70.6642 76.3973L65.9845 77.9839Z" fill="#008033"/>
<path d="M81.8261 66.9266C81.8261 66.9266 82.5907 69.1616 83.8913 68.6577C85.1918 68.1539 87.106 67.5235 87.106 67.5235L85.6323 66.6495C85.6323 66.6495 87.7302 66.9057 88.6157 66.7593C89.5012 66.6129 87.899 65.4207 87.899 65.4207C87.899 65.4207 89.5521 64.3185 90.7574 65.0487C91.9636 65.7771 93.5831 66.1517 93.5831 66.1517C93.5831 66.1517 91.3631 62.223 90.2865 61.8106C89.2098 61.3983 89.2171 61.0704 89.2171 61.0704L90.8666 60.132C90.8666 60.132 89.1874 59.3545 88.5701 59.6449C87.953 59.9354 88.9372 58.3909 88.9372 58.3909C88.9372 58.3909 86.2293 58.0975 85.8839 58.3681C85.5386 58.6387 82.225 61.171 82.225 61.171L81.8261 66.9266Z" fill="#008033"/>
<path d="M70.3143 49.3263C70.3143 49.3263 70.5381 46.6087 72.7018 44.8835C74.8655 43.1584 77.4782 43.0389 79.6994 44.3931C84.1623 47.5571 84.5561 47.9093 89.8855 48.3201C83.8789 52.7827 88.5613 56.8141 85.4966 60.8656C81.3508 67.5756 76.0047 66.7999 72.3926 63.1509C70.8694 61.2709 69.675 59.972 69.675 59.972L70.3143 49.3263Z" fill="#FFAACC"/>
<path d="M72.7296 52.2494C72.7296 52.2494 72.9046 50.4053 74.5855 49.8829C76.2665 49.3605 78.2504 50.57 80.767 50.7589C83.2835 50.9478 83.7783 50.9131 83.7783 50.9131C83.7783 50.9131 81.9141 50.9201 79.9306 52.1999C77.9472 53.4796 74.9854 55.71 77.1324 56.3462C79.2793 56.9824 83.1121 53.8031 83.1121 53.8031C83.1121 53.8031 83.3498 55.6676 82.7686 58.1533C82.1875 60.639 81.9251 61.0845 81.9251 61.0845C81.9251 61.0845 78.9269 59.9966 77.1375 60.1838C75.3483 60.371 74.6468 60.2797 74.6468 60.2797L71.8338 57.892L72.7296 52.2494Z" fill="#FF2A7F"/>
<path d="M70.3225 49.3091C70.3225 49.3091 73.571 46.4196 75.6664 46.4862C77.7619 46.5529 80.7402 49.0414 83.0345 49.3638C85.3288 49.6863 85.675 49.6283 85.675 49.6283C85.675 49.6283 84.1175 51.8246 84.1592 54.8929C84.2361 60.5539 82.4049 62.7029 82.4049 62.7029L83.451 63.4755C84.203 63.1619 84.8458 61.7944 85.5049 60.8487C88.7946 54.0975 85.1089 54.2334 89.8938 48.3031C83.2451 47.1542 75.2566 38.807 71.9176 45.4118C70.8211 46.7278 70.3224 49.3093 70.3224 49.3093L70.3225 49.3091Z" fill="#D40055"/>
<path d="M61.5841 60.3201C61.5841 60.3201 58.2038 61.1133 57.1143 63.1128C56.0248 65.1122 55.994 69.6599 55.3942 71.5773C54.7942 73.4948 54.1689 74.826 52.678 75.4392C51.187 76.0522 54.6366 75.1112 57.1357 75.8737C59.6349 76.6363 64.8449 78.671 67.5457 77.0831C70.2465 75.4951 72.6087 70.4662 72.6087 70.4662L69.7254 59.9561L61.5841 60.3201Z" fill="#FFAACC" stroke="#D40055" stroke-width="2.02818"/>
<path d="M85.6662 66.662C86.6962 74.7526 81.8909 74.8153 82.6735 78.1562C84.4703 85.5453 83.5507 82.2619 83.5507 82.2619C83.5507 82.2619 82.0736 80.0736 80.3234 79.9578C73.6327 80.2424 66.0041 80.7964 67.735 69.6193C68.1231 67.1921 72.4252 63.1557 72.4252 63.1557C77.9014 59.6128 83.6293 62.7352 85.6662 66.6619L85.6662 66.662Z" fill="#FFAACC" stroke="#D40055" stroke-width="1.96145"/>
<path d="M75.3694 64.2053C79.9866 63.2647 81.4063 65.4764 81.3907 68.8181C81.5043 72.9908 81.082 72.5316 81.2162 73.1515C81.3503 73.7715 79.8816 73.616 79.3125 71.3183C78.7435 69.0205 78.7688 66.816 78.0428 66.777C77.3167 66.738 75.7688 67.5433 76.4438 69.502C81.3806 78.7975 70.9395 79.4666 70.0088 73.9202C69.5302 70.7409 71.2142 67.5327 71.2142 67.5327C71.2142 67.5327 71.4431 68.9422 72.8491 67.6467C74.255 66.3513 75.3694 64.2053 75.3694 64.2053V64.2053Z" fill="#FF2A7F"/>
<path d="M70.8704 70.9167C70.8704 70.9167 71.685 73.4422 72.8941 74.0982C74.1032 74.7541 75.6961 74.4268 75.6961 74.4268C75.6961 74.4268 75.0278 76.1957 73.938 76.1549C72.7934 76.1122 71.7826 74.9291 71.205 73.109C70.6298 71.2965 70.8704 70.9167 70.8704 70.9167V70.9167Z" fill="white"/>
<path d="M60.4301 66.9933C60.4301 66.9933 58.7086 68.4172 58.3557 69.2486C58.003 70.08 57.9524 70.6675 57.9524 70.6675C57.9524 70.6675 57.5966 69.0236 60.1683 68.8315C62.7398 68.6393 64.696 67.5963 64.7514 68.4387C64.8069 69.2811 64.8847 71.5167 62.6448 71.4829C60.4049 71.4492 58.1129 71.5264 58.1129 71.5264C58.1129 71.5264 57.4482 73.2617 60.3904 73.9614C63.3326 74.6611 66.2193 74.5184 66.2193 74.5184C66.2193 74.5184 66.0305 70.598 66.3415 69.4557C66.6527 68.3135 68.0745 66.3264 68.0745 66.3264L66.7047 64.9204C66.7047 64.9204 66.0761 65.2982 64.3694 65.9701C62.6628 66.6421 60.43 66.9933 60.43 66.9933L60.4301 66.9933Z" fill="#D40055"/>
<path d="M71.5876 52.4886C71.5876 52.4886 72.061 48.3444 68.1274 47.3102C64.1937 46.2759 62.5006 48.3125 59.7784 48.3578C57.0564 48.4032 55.5294 47.4723 55.5294 47.4723C55.5294 47.4723 56.3093 49.9936 55.6369 52.9934C54.9644 55.9933 54.151 57.2024 54.4246 59.7561C54.6983 62.3098 56.2334 64.2687 57.7604 65.1997C59.2873 66.1306 63.0801 65.374 63.0801 65.374C63.0801 65.374 66.6156 64.1196 68.8149 62.0507C71.0144 59.9817 71.5876 52.4886 71.5876 52.4886V52.4886Z" fill="#FFAACC" stroke="#D40055" stroke-width="2.00787"/>
<path d="M65.976 62.4505C65.976 62.4505 64.1833 63.5456 62.6432 63.4628C61.103 63.38 58.1871 63.505 57.2612 62.2745C56.3353 61.0441 54.9892 59.7478 56.1465 57.1237C57.304 54.4997 57.6683 51.9629 57.6683 51.9629C57.6683 51.9629 58.3312 53.033 57.9596 55.1848C57.588 57.3366 57.7832 58.1215 60.2112 58.5553C62.6392 58.9891 65.4492 58.6094 65.4492 58.6094C65.4492 58.6094 62.6258 55.1756 61.5923 53.2137C60.5589 51.2517 63.3519 52.6692 64.4532 54.0065C65.5544 55.3439 66.9448 49.3419 66.9448 49.3419C66.9448 49.3419 68.0588 50.9724 68.3924 52.9833C68.7262 54.9943 67.9069 59.1399 67.9069 59.1399L65.976 62.4505Z" fill="#FF2A7F"/>
<path d="M67.902 59.1483C66.466 61.4842 65.2811 63.2851 67.1377 65.1051C68.9944 66.9252 71.33 68.8079 72.8263 67.4264C74.3226 66.0448 76.058 63.4326 75.0276 61.6575C73.5325 58.4781 69.4379 56.9557 67.902 59.1483V59.1483Z" fill="#D40055" stroke="#FF80B2" stroke-width="0.6904"/>
<path fill-rule="evenodd" clip-rule="evenodd" d="M70.403 62.9008C70.4435 63.1333 70.1436 63.0665 70.0585 62.9637C69.8281 62.685 70.0185 62.2717 70.2687 62.1276C70.7165 61.87 71.2511 62.219 71.4364 62.7121C71.7083 63.4359 71.2943 64.2147 70.6713 64.4468C69.841 64.7562 68.948 64.1275 68.681 63.2138C68.3444 62.0655 69.0039 60.8873 70.0008 60.5803C71.2083 60.2085 72.4702 61.1267 72.8147 62.4595C73.2207 64.0303 72.3118 65.6132 70.9401 65.9918C69.3564 66.4289 67.7227 65.2187 67.303 63.465C66.8261 61.4725 67.9858 59.4829 69.7325 59.0339C71.6919 58.5302 73.6985 60.0336 74.1927 62.208C74.7414 64.622 73.3302 67.0191 71.2085 67.5379" fill="#FF2A7F"/>
<path d="M70.403 62.9008C70.4435 63.1333 70.1436 63.0665 70.0585 62.9637C69.8281 62.685 70.0185 62.2717 70.2687 62.1276C70.7165 61.87 71.2511 62.219 71.4364 62.7121C71.7083 63.4359 71.2943 64.2147 70.6713 64.4468C69.841 64.7562 68.948 64.1275 68.681 63.2138C68.3444 62.0655 69.0039 60.8873 70.0008 60.5803C71.2083 60.2085 72.4702 61.1267 72.8147 62.4595C73.2207 64.0303 72.3118 65.6132 70.9401 65.9918C69.3564 66.4289 67.7227 65.2187 67.303 63.465C66.8261 61.4725 67.9858 59.4829 69.7325 59.0339C71.6919 58.5302 73.6985 60.0336 74.1927 62.208C74.7414 64.622 73.3302 67.0191 71.2085 67.5379" stroke="#FF80B2" stroke-width="0.729685"/>
<path d="M57.3365 57.2103C57.3365 57.2103 57.1102 58.9689 58.2798 59.6061C59.4494 60.2435 61.5707 60.3228 61.5707 60.3228C61.5707 60.3228 59.8861 61.3301 58.5641 61.107C57.1752 60.8727 56.5066 59.9346 56.6812 58.6694C56.8552 57.4092 57.336 57.21 57.336 57.21L57.3365 57.2103Z" fill="white"/>
<path d="M61.186 71.9427C61.186 71.9427 62.8099 73.0802 64.1026 72.6877C65.3955 72.295 64.8308 73.8696 63.4277 73.7522C62.0245 73.6348 61.186 71.9428 61.186 71.9428L61.186 71.9427Z" fill="white"/>
<path d="M75.7522 57.2203C75.7522 57.2203 75.6521 58.5385 77.8746 58.4485C80.0971 58.3585 80.5071 58.1487 80.5071 58.1487C80.5071 58.1487 80.3253 59.0888 78.8835 59.0636C77.4418 59.0384 76.1364 58.8337 75.8691 58.408C75.6019 57.9824 75.7522 57.2202 75.7522 57.2202L75.7522 57.2203Z" fill="white"/>
<path d="M16.1666 19.057H19.8653C22.0045 16.1829 23.6294 13.6763 24.7398 11.5371C25.8666 9.39786 26.4299 7.99349 26.4299 7.32396C26.4299 6.39316 25.6298 5.92775 24.0294 5.92775C23.0986 6.0094 21.4493 6.21353 19.0815 6.54012C16.7136 6.85039 14.4193 7.22598 12.1984 7.66689C10.2062 8.04247 8.60586 8.43439 7.39744 8.84264C6.20536 9.23456 5.36437 9.56115 4.87447 9.82243C4.38458 10.0837 4.08247 10.2715 3.96817 10.3858C5.17658 10.3205 6.1972 10.2878 7.03002 10.2878C8.33641 10.2878 8.98961 10.4348 8.98961 10.7287C8.98961 10.8594 8.53237 11.0308 7.6179 11.2431C6.70342 11.4391 5.83794 11.6514 5.02144 11.88C4.22128 12.1086 3.43744 12.3781 2.66994 12.6883C1.91876 12.9986 1.46153 13.1537 1.29823 13.1537C0.922639 13.1537 0.612371 13.0149 0.367423 12.7373C0.122474 12.4434 0 12.0923 0 11.684C0 11.4064 0.220454 10.6879 0.661361 9.5285C1.1186 8.35274 1.75546 7.17699 2.57196 6.00124C3.38845 4.80915 4.40091 3.92734 5.60932 3.35579C6.05023 3.14351 7.4546 2.75975 9.82243 2.20454C12.2066 1.64932 14.8929 1.14309 17.8812 0.685857C20.8696 0.228619 23.6049 0 26.087 0C27.5894 0 28.7896 0.212289 29.6878 0.636866C30.6022 1.04511 31.0595 1.93509 31.0595 3.3068C31.0595 3.74771 30.8962 4.43357 30.5696 5.36437C30.243 6.27885 29.7204 7.4546 29.0019 8.89163C28.2997 10.3287 27.4342 11.9045 26.4054 13.6191C25.393 15.3338 24.2336 17.1464 22.9272 19.057H26.6994L23.4416 23.7355C23.0007 23.7682 22.4454 23.7927 21.7759 23.809C21.1227 23.8253 20.4042 23.8498 19.6204 23.8825C17.6118 26.4953 15.4318 28.9529 13.0802 31.2554C10.7451 33.5579 8.62219 35.4032 6.71159 36.7913C4.81732 38.1793 3.48643 38.8733 2.71893 38.8733C2.40866 38.8733 2.13922 38.7672 1.9106 38.5549C1.68198 38.3589 1.56767 38.0976 1.56767 37.7711C1.56767 37.4934 1.92693 36.7831 2.64544 35.64C3.38029 34.4969 4.39274 33.4273 5.6828 32.4312C6.97287 31.4351 8.44256 30.8798 10.0919 30.7655C10.7614 30.0633 11.3329 29.4428 11.8065 28.9039C12.2964 28.3487 12.9823 27.5567 13.8641 26.5279C14.7459 25.4828 15.4236 24.6826 15.8972 24.1274L8.52421 24.4948C7.72404 24.5275 7.16883 24.4948 6.85856 24.3969C6.56462 24.2826 6.41765 24.0131 6.41765 23.5885C6.41765 23.5885 6.4993 23.3844 6.6626 22.9762C6.8259 22.5516 6.99736 22.1842 7.17699 21.8739C7.43827 21.4003 7.64239 21.1146 7.78936 21.0166C7.95266 20.9186 8.40173 20.788 9.13658 20.6247L13.6436 19.5224C14.852 19.2121 15.693 19.057 16.1666 19.057Z" fill="#D40055"/>
<path d="M40.2695 23.2701V25.0827C36.8566 29.6061 34.0805 31.8678 31.9413 31.8678C30.7819 31.8678 29.8674 31.2391 29.1979 29.9817C28.5447 28.708 28.2181 27.0423 28.2181 24.9847C28.2181 23.3191 28.61 21.3432 29.3938 19.057C30.1777 16.7545 31.2228 14.4275 32.5292 12.076C33.8519 9.70812 35.2154 7.65056 36.6198 5.90326C38.0405 4.13963 39.3551 2.90672 40.5635 2.20454C41.0534 1.9106 41.4371 1.76363 41.7147 1.76363C42.0577 1.76363 42.2863 1.91876 42.4006 2.22903C42.5149 2.52297 42.572 3.03736 42.572 3.77221C42.572 6.04206 41.6494 8.83447 39.8041 12.1494C37.9588 15.4481 35.3869 18.8202 32.0883 22.2658C31.925 23.115 31.8433 23.7682 31.8433 24.2254C31.8433 25.2705 32.0638 26.1197 32.5047 26.7729C32.9619 27.4261 33.5906 27.7527 34.3908 27.7527C34.799 27.7527 35.2399 27.5975 35.7135 27.2873C36.1871 26.9607 36.6851 26.5606 37.2077 26.087C37.7302 25.6134 38.7508 24.6745 40.2695 23.2701ZM32.9456 18.861C33.7947 18.0282 34.6112 17.0811 35.3951 16.0196C36.1952 14.9582 36.9464 13.8233 37.6486 12.6148C38.3508 11.4064 38.8978 10.3205 39.2897 9.35703C39.698 8.39357 39.9021 7.66689 39.9021 7.17699C39.9021 6.8014 39.7715 6.61361 39.5102 6.61361C39.4122 6.61361 39.2244 6.70342 38.9468 6.88305C37.9507 7.69955 36.8321 9.29988 35.591 11.684C34.3499 14.0519 33.4681 16.4442 32.9456 18.861Z" fill="#D40055"/>
<path d="M55.8238 23.4906V25.1317C54.746 26.1115 53.8805 26.7647 53.2273 27.0913C52.5741 27.4179 51.6351 27.5485 50.4104 27.4832C48.2875 29.998 46.4177 31.2554 44.8011 31.2554C43.8866 31.2554 43.0538 30.9533 42.3026 30.3491C41.5514 29.7449 40.9472 28.9202 40.49 27.8751C40.0491 26.83 39.8286 25.6624 39.8286 24.3724C39.8286 23.3273 40.1715 22.1678 40.8574 20.8941C41.5596 19.6204 42.4577 18.4365 43.5518 17.3424C44.6623 16.2319 45.8462 15.3419 47.1036 14.6724C48.361 13.9866 49.5286 13.6436 50.6064 13.6436C51.3739 13.6436 51.9781 13.7661 52.419 14.0111C52.8599 14.2397 53.0803 14.5663 53.0803 14.9908C53.0803 15.3174 52.8925 15.693 52.517 16.1176C53.1375 16.2482 53.5621 16.4687 53.7907 16.779C54.0193 17.0729 54.1336 17.62 54.1336 18.4201C54.1336 19.204 53.9458 20.1919 53.5702 21.384C53.211 22.5761 52.7129 23.6947 52.076 24.7398L52.517 25.1807H52.8844C53.162 25.1807 53.4314 25.1154 53.6927 24.9847C53.9703 24.8378 54.2153 24.6908 54.4275 24.5438C54.6398 24.3805 55.1052 24.0294 55.8238 23.4906ZM50.7778 17.0484C49.4224 17.8649 48.263 18.6079 47.2996 19.2774C46.3361 19.9306 45.5196 20.6002 44.8501 21.286C44.1805 21.9555 43.7315 22.6332 43.5028 23.3191C43.0946 25.148 42.8905 26.136 42.8905 26.283C42.8905 27.3607 43.6417 27.8996 45.144 27.8996C45.8462 27.8996 47.0219 27.2954 48.6713 26.087C48.3937 25.3195 48.2548 24.5847 48.2548 23.8825C48.2548 22.8537 48.4671 21.8086 48.8917 20.7471C49.3163 19.6694 49.945 18.4365 50.7778 17.0484Z" fill="#D40055"/>
<path d="M55.5543 25.4256V23.8335C56.4361 22.7884 57.1057 21.8984 57.5629 21.1635C57.0403 20.9839 56.6566 20.7635 56.4116 20.5022C56.183 20.2409 56.0687 19.849 56.0687 19.3264C56.0687 18.7386 56.3137 17.9955 56.8036 17.0974C57.2934 16.1993 57.8977 15.3583 58.6162 14.5744C59.3347 13.7906 59.9879 13.2844 60.5758 13.0558C60.8044 12.9414 61.0248 12.8843 61.2371 12.8843C61.5637 12.8843 61.727 13.0394 61.727 13.3497C61.727 13.6273 61.4739 14.1907 60.9677 15.0398C64.3316 14.5173 66.4545 14.256 67.3363 14.256C67.6793 14.256 67.916 14.2887 68.0467 14.354C68.3243 14.5009 68.5529 14.8439 68.7325 15.3828C68.9122 15.9217 69.002 16.4605 69.002 16.9994C69.002 17.3423 68.8469 17.7179 68.5366 18.1262C68.2426 18.5181 67.7283 19.0978 66.9934 19.8653C66.1279 20.7961 65.4012 21.8086 64.8134 22.9027C64.2255 23.9968 63.9316 24.8214 63.9316 25.3767C63.9316 26.1442 64.4051 26.5279 65.3523 26.5279C66.3484 26.5279 68.0794 25.5155 70.5452 23.4906V25.1317C69.1898 26.5524 68.0712 27.671 67.1894 28.4875C66.3076 29.304 65.4911 29.9572 64.7399 30.4471C63.9887 30.9207 63.3192 31.1574 62.7313 31.1574C62.0455 31.1574 61.4739 30.8472 61.0167 30.2266C60.5594 29.5898 60.3308 28.6753 60.3308 27.4832C60.3308 26.781 60.5104 25.9809 60.8697 25.0827C61.229 24.1846 61.7515 23.2129 62.4374 22.1678C63.1396 21.1064 63.9234 20.0531 64.7889 19.008C64.3316 19.106 63.8172 19.2121 63.2457 19.3264C62.6742 19.4244 62.0699 19.5306 61.4331 19.6449C60.7962 19.7592 60.3063 19.849 59.9634 19.9143C58.9509 21.9392 57.4812 23.7763 55.5543 25.4256Z" fill="#D40055"/>
<path d="M80.4901 12.5904C80.0818 12.5904 79.6899 12.4352 79.3143 12.1249C78.9551 11.8147 78.7754 11.4228 78.7754 10.9492C78.7754 10.2307 79.1184 9.43052 79.8042 8.5487C80.4901 7.66689 81.2004 7.22598 81.9353 7.22598C82.4252 7.22598 82.8334 7.38111 83.16 7.69138C83.4866 7.98532 83.6499 8.41806 83.6499 8.98961C83.6499 9.69179 83.3151 10.4675 82.6456 11.3166C81.9761 12.1658 81.2576 12.5904 80.4901 12.5904ZM82.1557 23.5395V25.3277C80.5717 27.3689 79.0939 28.9121 77.7222 29.9572C76.3504 30.986 75.1829 31.5004 74.2194 31.5004C72.8803 31.5004 71.8842 30.7982 71.231 29.3938C70.5778 27.9894 70.2512 26.4544 70.2512 24.7888C70.2512 24.1519 70.3165 23.5477 70.4472 22.9762C70.5778 22.3883 70.733 21.9066 70.9126 21.531C71.0922 21.1554 71.427 20.5675 71.9169 19.7673C74.2357 16.1584 76.3586 14.354 78.2855 14.354C79.2817 14.354 79.7797 14.7377 79.7797 15.5052C79.7797 16.0278 79.4531 16.8443 78.7999 17.9547C78.1631 19.0652 77.5915 19.8572 77.0853 20.3307C75.6646 21.7024 74.7338 22.6577 74.2929 23.1966C73.8683 23.7355 73.656 24.3479 73.656 25.0337C73.656 25.6216 73.8765 26.1115 74.3174 26.5034C74.7583 26.8953 75.3298 27.0913 76.032 27.0913C76.7995 27.0913 77.6405 26.8137 78.555 26.2585C79.4858 25.6869 80.686 24.7806 82.1557 23.5395Z" fill="#D40055"/>
<path d="M98.4693 19.106C95.5952 22.3066 94.1582 24.5357 94.1582 25.7931C94.1582 26.4953 94.444 26.8464 95.0155 26.8464C95.4891 26.8464 96.1015 26.6014 96.8526 26.1115C97.6201 25.6053 98.8122 24.7153 100.429 23.4416V25.1317C98.11 27.4179 96.3301 29.0672 95.089 30.0797C93.8479 31.0921 92.8355 31.5984 92.0516 31.5984C90.7126 31.5984 90.0431 30.7165 90.0431 28.9529C90.0431 28.4304 90.1247 27.916 90.288 27.4097C90.4513 26.9035 90.6718 26.3809 90.9494 25.8421C91.2433 25.2868 91.6842 24.503 92.2721 23.4906C92.86 22.4618 93.5377 21.3023 94.3052 20.0123C93.3744 20.4859 92.2068 21.4248 90.8024 22.8292C89.8879 23.711 89.1123 24.552 88.4754 25.3522C87.8385 26.136 87.1527 27.0178 86.4178 27.9976C85.6993 28.9611 85.1686 29.6143 84.8257 29.9572C84.4991 30.2838 84.1643 30.4471 83.8214 30.4471C83.2988 30.4471 82.8171 29.9 82.3762 28.8059C81.9353 27.7118 81.7148 26.4381 81.7148 24.9847C81.7148 24.0866 81.8128 23.3844 82.0088 22.8782C82.221 22.372 82.6293 21.6534 83.2335 20.7226C84.3603 18.9917 85.3319 17.7261 86.1484 16.9259C86.9649 16.1094 87.7487 15.7012 88.4999 15.7012C89.0224 15.7012 89.4389 15.791 89.7491 15.9706C90.0757 16.1503 90.239 16.4279 90.239 16.8035C90.239 16.9668 90.19 17.1382 90.0921 17.3179C89.9941 17.4975 89.8798 17.6608 89.7491 17.8078C89.6348 17.9547 89.3817 18.2405 88.9898 18.6651C86.4097 21.5228 85.1196 23.3762 85.1196 24.2254C85.1196 24.699 85.2747 24.9358 85.585 24.9358C85.781 24.9358 86.1565 24.6255 86.7118 24.0049C87.2833 23.3681 88.01 22.5434 88.8918 21.531C89.79 20.5022 90.8432 19.4326 92.0516 18.3221C93.2764 17.2117 94.6644 16.1421 96.2158 15.1133C97.0812 14.5091 97.7998 14.207 98.3713 14.207C98.6326 14.207 98.8857 14.5663 99.1306 15.2848C99.3919 16.0033 99.5226 16.73 99.5226 17.4648C99.5226 17.8241 99.1715 18.3711 98.4693 19.106Z" fill="#D40055"/>
<path d="M111.476 23.5885C110.039 25.2215 108.749 26.6096 107.606 27.7527C106.479 28.8958 105.556 29.7531 104.838 30.3246C104.136 30.8798 103.654 31.1574 103.393 31.1574C102.968 31.1574 102.486 30.8145 101.948 30.1287C101.425 29.4428 100.976 28.5692 100.6 27.5077C100.225 26.4463 100.037 25.3685 100.037 24.2744C100.037 22.6904 100.804 21.0982 102.339 19.4979C103.874 17.8812 105.622 16.5422 107.581 15.4807C109.541 14.4193 111.011 13.8886 111.99 13.8886C112.791 13.8886 113.574 14.3948 114.342 15.4073C115.599 12.7781 116.791 10.443 117.918 8.40173C119.061 6.36049 120.017 4.84181 120.784 3.84569C121.552 2.84957 122.099 2.3515 122.425 2.3515C122.785 2.3515 123.111 2.53113 123.405 2.89039C123.715 3.23332 123.87 3.62524 123.87 4.06615C123.87 4.9153 123.25 6.37682 122.009 8.45072C120.768 10.5083 119.543 12.5169 118.335 14.4765C117.126 16.436 116.089 18.3711 115.224 20.2817C114.358 22.176 113.926 23.9315 113.926 25.5481C113.926 27.0178 114.399 27.7527 115.346 27.7527C115.918 27.7527 116.636 27.4342 117.502 26.7974C118.367 26.1442 119.6 25.0582 121.201 23.5395V25.3277C117.673 29.8837 114.954 32.1617 113.044 32.1617C112.276 32.1617 111.721 31.8678 111.378 31.2799C111.051 30.692 110.888 29.8184 110.888 28.659C110.888 27.0913 111.084 25.4012 111.476 23.5885ZM113.289 17.6118C111.835 18.1017 110.129 18.8937 108.169 19.9878C106.21 21.0656 105.026 21.8086 104.618 22.2168C104.258 22.5434 103.94 23.1558 103.662 24.0539C103.385 24.9521 103.246 25.6298 103.246 26.087C103.246 26.3646 103.327 26.5932 103.491 26.7729C103.654 26.9525 103.858 27.0423 104.103 27.0423C104.332 27.0423 104.593 26.9443 104.887 26.7484C105.181 26.5524 105.646 26.1687 106.283 25.5971C106.936 25.0256 107.361 24.6581 107.557 24.4948C107.834 24.2499 108.447 23.7273 109.394 22.9272C110.357 22.1107 111.06 21.4738 111.501 21.0166C111.941 20.5593 112.317 20.0531 112.627 19.4979C112.938 18.9264 113.158 18.2977 113.289 17.6118Z" fill="#D40055"/>
<path d="M136.951 23.4906V25.1317C135.873 26.1115 135.007 26.7647 134.354 27.0913C133.701 27.4179 132.762 27.5485 131.537 27.4832C129.414 29.998 127.545 31.2554 125.928 31.2554C125.014 31.2554 124.181 30.9533 123.43 30.3491C122.678 29.7449 122.074 28.9202 121.617 27.8751C121.176 26.83 120.956 25.6624 120.956 24.3724C120.956 23.3273 121.298 22.1678 121.984 20.8941C122.687 19.6204 123.585 18.4365 124.679 17.3424C125.789 16.2319 126.973 15.3419 128.231 14.6724C129.488 13.9866 130.656 13.6436 131.733 13.6436C132.501 13.6436 133.105 13.7661 133.546 14.0111C133.987 14.2397 134.207 14.5663 134.207 14.9908C134.207 15.3174 134.019 15.693 133.644 16.1176C134.264 16.2482 134.689 16.4687 134.918 16.779C135.146 17.0729 135.261 17.62 135.261 18.4201C135.261 19.204 135.073 20.1919 134.697 21.384C134.338 22.5761 133.84 23.6947 133.203 24.7398L133.644 25.1807H134.011C134.289 25.1807 134.558 25.1154 134.82 24.9847C135.097 24.8378 135.342 24.6908 135.554 24.5438C135.767 24.3805 136.232 24.0294 136.951 23.4906ZM131.905 17.0484C130.549 17.8649 129.39 18.6079 128.426 19.2774C127.463 19.9306 126.647 20.6002 125.977 21.286C125.307 21.9555 124.858 22.6332 124.63 23.3191C124.222 25.148 124.017 26.136 124.017 26.283C124.017 27.3607 124.769 27.8996 126.271 27.8996C126.973 27.8996 128.149 27.2954 129.798 26.087C129.521 25.3195 129.382 24.5847 129.382 23.8825C129.382 22.8537 129.594 21.8086 130.019 20.7471C130.443 19.6694 131.072 18.4365 131.905 17.0484Z" fill="#D40055"/>
<path d="M19.0269 106.993C21.509 104.74 23.9177 103.066 26.2528 101.972C28.588 100.878 30.3925 100.331 31.6662 100.331C32.0091 100.331 32.3276 100.478 32.6215 100.771C32.9154 101.049 33.1441 101.376 33.3074 101.751C33.487 102.127 33.5768 102.404 33.5768 102.584C33.5768 102.878 33.4625 103.098 33.2339 103.245C33.0053 103.376 32.6052 103.539 32.0336 103.735C32.1479 103.997 32.2949 104.331 32.4745 104.74C32.6542 105.148 32.793 105.483 32.8909 105.744C32.9889 105.989 33.0379 106.209 33.0379 106.405C33.0379 106.797 32.6378 107.532 31.8377 108.61C31.0538 109.671 30.4986 110.455 30.172 110.961C29.8617 111.468 29.7066 112.088 29.7066 112.823C29.7066 114.031 30.2618 114.636 31.3723 114.636C32.5154 114.636 34.3035 113.566 36.7366 111.427V112.921C32.6052 117.51 29.6495 119.804 27.8695 119.804C27.2326 119.804 26.7754 119.592 26.4978 119.167C26.2365 118.759 26.1059 118.146 26.1059 117.33C26.1059 116.04 26.5713 114.17 27.5021 111.721C25.1179 114.366 23.3461 116.252 22.1867 117.379C21.0273 118.489 20.072 119.045 19.3208 119.045C18.9615 119.045 18.5125 118.734 17.9736 118.114C17.4347 117.493 16.953 116.693 16.5284 115.713C16.1201 114.717 15.916 113.688 15.916 112.627C15.916 111.859 15.9895 111.223 16.1365 110.716C16.2834 110.194 16.5692 109.663 16.9938 109.124C17.4184 108.585 18.0961 107.875 19.0269 106.993ZM30.7599 104.299C26.5141 106.242 23.4849 107.891 21.6723 109.247C19.876 110.602 18.9779 111.998 18.9779 113.435C18.9779 113.958 19.0677 114.391 19.2473 114.734C19.4269 115.06 19.6719 115.223 19.9822 115.223C20.1618 115.223 20.4802 115.109 20.9375 114.881C22.6521 113.868 24.2198 112.553 25.6405 110.937C27.0612 109.304 28.7676 107.091 30.7599 104.299Z" fill="black"/>
<path d="M53.8585 111.427L53.4176 113.484C53.3523 113.746 53.3197 114.04 53.3197 114.366C53.3197 115.248 53.6871 115.689 54.4219 115.689C55.1241 115.689 56.8306 114.317 59.5413 111.574C59.5577 110.512 59.9496 109.288 60.7171 107.899C61.5009 106.511 62.3583 105.295 63.2891 104.25C64.2362 103.205 64.9384 102.682 65.3956 102.682C66.1141 102.682 66.4734 103.156 66.4734 104.103C66.4734 104.674 66.3346 105.377 66.057 106.209C65.7794 107.026 65.3711 107.916 64.8322 108.879C64.2933 109.826 63.632 110.806 62.8481 111.819C63.2564 112.553 63.6728 112.921 64.0974 112.921C64.4566 112.921 64.8486 112.798 65.2731 112.553C65.714 112.292 66.2611 111.9 66.9143 111.378V113.019C65.9998 113.737 65.2731 114.227 64.7343 114.489C64.2117 114.75 63.534 114.881 62.7012 114.881C62.3746 114.881 61.7867 114.66 60.9376 114.219C59.2719 115.983 57.9165 117.305 56.8714 118.187C55.8263 119.053 54.9771 119.486 54.3239 119.486C53.1972 119.486 52.2337 118.816 51.4335 117.477C50.6497 116.122 50.2578 114.636 50.2578 113.019C50.2578 110.847 51.4825 108.242 53.932 105.205C54.6669 104.291 55.2547 103.67 55.6957 103.343C56.1529 103.001 56.6673 102.829 57.2388 102.829C57.7287 102.829 58.1941 102.919 58.635 103.098C59.0759 103.278 59.2964 103.49 59.2964 103.735C59.2964 104.552 58.7493 105.752 57.6552 107.336C56.5611 108.904 55.2956 110.267 53.8585 111.427Z" fill="black"/>
<path d="M76.9082 100.429C76.4999 100.429 76.108 100.273 75.7324 99.9631C75.3732 99.6529 75.1936 99.261 75.1936 98.7874C75.1936 98.0689 75.5365 97.2687 76.2223 96.3869C76.9082 95.5051 77.6185 95.0642 78.3534 95.0642C78.8433 95.0642 79.2515 95.2193 79.5781 95.5296C79.9047 95.8235 80.068 96.2563 80.068 96.8278C80.068 97.53 79.7333 98.3057 79.0637 99.1548C78.3942 100.004 77.6757 100.429 76.9082 100.429ZM78.5738 111.378V113.166C76.9898 115.207 75.512 116.75 74.1403 117.795C72.7686 118.824 71.601 119.339 70.6375 119.339C69.2985 119.339 68.3023 118.636 67.6491 117.232C66.9959 115.828 66.6693 114.293 66.6693 112.627C66.6693 111.99 66.7347 111.386 66.8653 110.814C66.9959 110.226 67.1511 109.745 67.3307 109.369C67.5103 108.994 67.8451 108.406 68.335 107.606C70.6538 103.997 72.7767 102.192 74.7037 102.192C75.6998 102.192 76.1978 102.576 76.1978 103.343C76.1978 103.866 75.8712 104.682 75.218 105.793C74.5812 106.903 74.0096 107.695 73.5034 108.169C72.0827 109.541 71.1519 110.496 70.711 111.035C70.2864 111.574 70.0741 112.186 70.0741 112.872C70.0741 113.46 70.2946 113.95 70.7355 114.342C71.1764 114.734 71.7479 114.929 72.4501 114.929C73.2176 114.929 74.0586 114.652 74.9731 114.097C75.9039 113.525 77.1041 112.619 78.5738 111.378Z" fill="black"/>
<path d="M89.572 111.427C88.135 113.06 86.8449 114.448 85.7018 115.591C84.5751 116.734 83.6524 117.591 82.9339 118.163C82.2317 118.718 81.75 118.996 81.4887 118.996C81.0642 118.996 80.5824 118.653 80.0435 117.967C79.521 117.281 79.0719 116.407 78.6963 115.346C78.3207 114.284 78.1329 113.207 78.1329 112.113C78.1329 110.529 78.9004 108.936 80.4354 107.336C81.9705 105.719 83.7178 104.38 85.6774 103.319C87.6369 102.257 89.1066 101.727 90.0864 101.727C90.8866 101.727 91.6704 102.233 92.4379 103.245C93.6953 100.616 94.8874 98.2812 96.0142 96.2399C97.1573 94.1987 98.1126 92.68 98.8801 91.6839C99.6476 90.6878 100.195 90.1897 100.521 90.1897C100.88 90.1897 101.207 90.3693 101.501 90.7286C101.811 91.0715 101.966 91.4634 101.966 91.9043C101.966 92.7535 101.346 94.215 100.105 96.2889C98.8637 98.3465 97.639 100.355 96.4306 102.315C95.2222 104.274 94.1852 106.209 93.3197 108.12C92.4543 110.014 92.0215 111.77 92.0215 113.386C92.0215 114.856 92.4951 115.591 93.4422 115.591C94.0138 115.591 94.7323 115.272 95.5978 114.636C96.4632 113.982 97.6962 112.896 99.2965 111.378V113.166C95.7692 117.722 93.0503 120 91.1397 120C90.3722 120 89.817 119.706 89.4741 119.118C89.1475 118.53 88.9842 117.657 88.9842 116.497C88.9842 114.929 89.1801 113.239 89.572 111.427ZM91.3846 105.45C89.9313 105.94 88.2248 106.732 86.2652 107.826C84.3056 108.904 83.1217 109.647 82.7135 110.055C82.3542 110.382 82.0358 110.994 81.7582 111.892C81.4806 112.79 81.3418 113.468 81.3418 113.925C81.3418 114.203 81.4234 114.431 81.5867 114.611C81.75 114.791 81.9541 114.881 82.1991 114.881C82.4277 114.881 82.689 114.783 82.9829 114.587C83.2769 114.391 83.7423 114.007 84.3791 113.435C85.0323 112.864 85.4569 112.496 85.6529 112.333C85.9305 112.088 86.5428 111.566 87.49 110.765C88.4534 109.949 89.1556 109.312 89.5965 108.855C90.0374 108.398 90.413 107.891 90.7233 107.336C91.0336 106.765 91.254 106.136 91.3846 105.45Z" fill="black"/>
<path d="M102.162 106.993C104.645 104.74 107.053 103.066 109.388 101.972C111.724 100.878 113.528 100.331 114.802 100.331C115.145 100.331 115.463 100.478 115.757 100.771C116.051 101.049 116.28 101.376 116.443 101.751C116.623 102.127 116.712 102.404 116.712 102.584C116.712 102.878 116.598 103.098 116.369 103.245C116.141 103.376 115.741 103.539 115.169 103.735C115.283 103.997 115.43 104.331 115.61 104.74C115.79 105.148 115.928 105.483 116.026 105.744C116.124 105.989 116.173 106.209 116.173 106.405C116.173 106.797 115.773 107.532 114.973 108.61C114.189 109.671 113.634 110.455 113.308 110.961C112.997 111.468 112.842 112.088 112.842 112.823C112.842 114.031 113.397 114.636 114.508 114.636C115.651 114.636 117.439 113.566 119.872 111.427V112.921C115.741 117.51 112.785 119.804 111.005 119.804C110.368 119.804 109.911 119.592 109.633 119.167C109.372 118.759 109.241 118.146 109.241 117.33C109.241 116.04 109.707 114.17 110.638 111.721C108.253 114.366 106.482 116.252 105.322 117.379C104.163 118.489 103.207 119.045 102.456 119.045C102.097 119.045 101.648 118.734 101.109 118.114C100.57 117.493 100.088 116.693 99.6639 115.713C99.2557 114.717 99.0515 113.688 99.0515 112.627C99.0515 111.859 99.125 111.223 99.272 110.716C99.419 110.194 99.7047 109.663 100.129 109.124C100.554 108.585 101.232 107.875 102.162 106.993ZM113.895 104.299C109.65 106.242 106.62 107.891 104.808 109.247C103.012 110.602 102.113 111.998 102.113 113.435C102.113 113.958 102.203 114.391 102.383 114.734C102.562 115.06 102.807 115.223 103.118 115.223C103.297 115.223 103.616 115.109 104.073 114.881C105.788 113.868 107.355 112.553 108.776 110.937C110.197 109.304 111.903 107.091 113.895 104.299Z" fill="black"/>
</svg>
